<?xml version="1.0" encoding="UTF-8"?>
<svg xmlns="http://www.w3.org/2000/svg" xmlns:xlink="http://www.w3.org/1999/xlink" viewBox="0 0 144 144" width="144px" height="144px">
<g id="surface143895603">
<path style=" stroke:none;fill-rule:nonzero;fill:rgb(21.960784%,55.686277%,23.529412%);fill-opacity:1;" d="M 51.613281 57.367188 L 36.890625 65.511719 C 36.339844 65.8125 36 66.378906 36 66.988281 L 36 83.285156 C 36 83.894531 36.339844 84.457031 36.890625 84.761719 L 51.613281 92.914062 C 52.164062 93.214844 52.84375 93.214844 53.394531 92.914062 L 68.113281 84.761719 C 68.660156 84.457031 69 83.894531 69 83.285156 L 69 66.988281 C 69 66.378906 68.660156 65.816406 68.109375 65.511719 L 53.390625 57.367188 C 53.113281 57.214844 52.804688 57.136719 52.5 57.136719 C 52.191406 57.136719 51.886719 57.214844 51.609375 57.367188 M 127.351562 72.039062 L 124.898438 73.394531 C 124.804688 73.445312 124.75 73.539062 124.75 73.640625 L 124.75 76.359375 C 124.75 76.460938 124.808594 76.554688 124.898438 76.605469 L 127.351562 77.964844 C 127.445312 78.015625 127.558594 78.015625 127.648438 77.964844 L 130.105469 76.605469 C 130.195312 76.554688 130.25 76.460938 130.25 76.359375 L 130.25 73.640625 C 130.25 73.539062 130.195312 73.445312 130.101562 73.394531 L 127.648438 72.039062 C 127.601562 72.011719 127.550781 72 127.5 72 C 127.449219 72 127.398438 72.011719 127.351562 72.039062 "/>
<path style=" stroke:none;fill-rule:nonzero;fill:rgb(100%,100%,100%);fill-opacity:1;" d="M 107.253906 40.09375 L 100.085938 36.09375 C 99.859375 35.96875 99.585938 35.96875 99.363281 36.101562 C 99.140625 36.234375 99.003906 36.472656 99.003906 36.730469 L 99 60.886719 L 92.390625 57.226562 C 92.113281 57.074219 91.804688 57 91.5 57 C 91.195312 57 90.886719 57.074219 90.609375 57.226562 L 90.613281 57.226562 L 75.890625 65.371094 C 75.339844 65.675781 75 66.238281 75 66.847656 L 75 83.144531 C 75 83.753906 75.339844 84.316406 75.890625 84.621094 L 90.613281 92.773438 C 91.164062 93.074219 91.84375 93.074219 92.394531 92.773438 L 107.113281 84.621094 C 107.660156 84.316406 108 83.753906 108 83.144531 L 108 41.363281 C 108 40.835938 107.710938 40.351562 107.253906 40.09375 Z M 98.597656 79.375 L 91.90625 83.078125 C 91.660156 83.21875 91.351562 83.21875 91.101562 83.078125 L 84.40625 79.375 C 84.152344 79.234375 84 78.976562 84 78.703125 L 84 71.292969 C 84 71.015625 84.152344 70.761719 84.40625 70.621094 L 91.097656 66.917969 L 91.09375 66.917969 C 91.222656 66.847656 91.359375 66.816406 91.5 66.816406 C 91.640625 66.816406 91.777344 66.851562 91.90625 66.917969 L 98.59375 70.621094 C 98.847656 70.761719 99 71.019531 99 71.296875 L 99 78.703125 C 99 78.976562 98.847656 79.234375 98.597656 79.375 Z M 98.597656 79.375 "/>
<path style=" stroke:none;fill-rule:nonzero;fill:rgb(18.039216%,49.019608%,19.607843%);fill-opacity:1;" d="M 51.613281 57.367188 L 36 83.285156 C 36 83.894531 36.339844 84.457031 36.890625 84.761719 L 51.613281 92.914062 C 52.164062 93.214844 52.84375 93.214844 53.394531 92.914062 L 69 66.988281 C 69 66.378906 68.660156 65.816406 68.109375 65.511719 L 53.390625 57.367188 C 53.113281 57.214844 52.804688 57.136719 52.5 57.136719 C 52.191406 57.136719 51.886719 57.214844 51.609375 57.367188 "/>
<path style=" stroke:none;fill-rule:nonzero;fill:rgb(29.803923%,68.627453%,31.37255%);fill-opacity:1;" d="M 51.613281 57.367188 L 36.890625 65.511719 C 36.339844 65.8125 36 66.378906 36 66.988281 L 51.613281 92.914062 C 52.160156 93.214844 52.84375 93.214844 53.390625 92.914062 L 68.113281 84.761719 C 68.660156 84.457031 69 83.894531 69 83.285156 L 53.390625 57.367188 C 53.113281 57.214844 52.804688 57.136719 52.5 57.136719 C 52.191406 57.136719 51.886719 57.214844 51.609375 57.367188 "/>
<path style=" stroke:none;fill-rule:nonzero;fill:rgb(100%,100%,100%);fill-opacity:1;" d="M 143.109375 65.371094 L 128.390625 57.226562 C 128.113281 57.074219 127.804688 57 127.5 57 C 127.195312 57 126.886719 57.074219 126.609375 57.226562 L 126.613281 57.226562 L 111.890625 65.371094 C 111.34375 65.675781 111 66.253906 111 66.882812 L 111 83.113281 C 111 83.742188 111.34375 84.320312 111.890625 84.625 L 126.613281 92.773438 C 127.167969 93.082031 127.84375 93.082031 128.394531 92.773438 L 135.183594 89.015625 C 135.804688 88.671875 135.800781 87.78125 135.175781 87.4375 L 120.40625 79.375 C 120.15625 79.234375 120 78.976562 120 78.691406 L 120 71.296875 C 120 71.019531 120.148438 70.765625 120.390625 70.632812 L 127.09375 66.925781 C 127.21875 66.855469 127.355469 66.820312 127.496094 66.820312 C 127.636719 66.820312 127.777344 66.859375 127.902344 66.925781 L 134.605469 70.636719 C 134.847656 70.765625 134.996094 71.023438 134.996094 71.296875 L 134.996094 77.332031 C 134.996094 77.59375 135.136719 77.832031 135.359375 77.960938 C 135.585938 78.085938 135.859375 78.085938 136.085938 77.957031 L 143.28125 73.777344 C 143.722656 73.519531 144 73.042969 144 72.527344 L 144 66.886719 C 144 66.253906 143.65625 65.675781 143.109375 65.371094 Z M 32.109375 65.371094 L 17.390625 57.226562 C 17.113281 57.074219 16.804688 57 16.5 57 C 16.195312 57 15.886719 57.074219 15.609375 57.226562 L 15.613281 57.226562 L 0.890625 65.371094 C 0.34375 65.675781 0 66.253906 0 66.882812 L 0 89.277344 C 0 89.535156 0.136719 89.773438 0.363281 89.902344 C 0.589844 90.03125 0.863281 90.03125 1.089844 89.902344 L 8.28125 85.722656 C 8.726562 85.464844 9 84.988281 9 84.472656 L 9 71.292969 C 9 71.015625 9.148438 70.761719 9.390625 70.628906 L 16.09375 66.921875 C 16.222656 66.851562 16.359375 66.820312 16.5 66.820312 C 16.640625 66.820312 16.777344 66.855469 16.90625 66.921875 L 23.609375 70.632812 C 23.851562 70.765625 24 71.019531 24 71.296875 L 24 84.472656 C 24 84.988281 24.273438 85.46875 24.71875 85.726562 L 31.914062 89.902344 C 32.140625 90.03125 32.414062 90.03125 32.640625 89.90625 C 32.863281 89.773438 33 89.535156 33 89.277344 L 33 66.886719 C 33 66.253906 32.65625 65.675781 32.109375 65.371094 Z M 32.109375 65.371094 "/>
</g>
</svg>
